<?xml version="1.0" encoding="iso-8859-1"?>
<!-- Generator: Adobe Illustrator 17.1.0, SVG Export Plug-In . SVG Version: 6.00 Build 0)  -->
<!DOCTYPE svg PUBLIC "-//W3C//DTD SVG 1.1//EN" "http://www.w3.org/Graphics/SVG/1.1/DTD/svg11.dtd">
<svg version="1.1" id="Capa_1" xmlns="http://www.w3.org/2000/svg" xmlns:xlink="http://www.w3.org/1999/xlink" x="0px" y="0px"
	 viewBox="0 0 375 375" style="enable-background:new 0 0 375 375;" xml:space="preserve">
<g>
	<path d="M348.592,163.227H26.408C11.847,163.227,0,175.074,0,189.634v0.186c0,14.529,11.796,26.353,26.313,26.405
		c-0.012,0.61-0.017,1.192-0.017,1.699c0,49.189,12.466,83.294,38.11,104.262c8.493,6.944,18.455,12.345,29.99,16.261
		c-0.96,2.531-1.49,5.272-1.49,8.135c0,12.688,10.322,23.009,23.009,23.009s23.009-10.321,23.009-23.009
		c0-0.196-0.01-0.39-0.015-0.585c3.321,0.139,6.697,0.231,10.184,0.231h77.067c3.551,0,7.145-0.092,10.762-0.289
		c-0.006,0.214-0.016,0.427-0.016,0.643c0,12.688,10.322,23.009,23.009,23.009s23.009-10.321,23.009-23.009
		c0-3.351-0.726-6.534-2.02-9.409c37.317-14.203,68.148-48.028,68.334-120.962C363.501,215.866,375,204.164,375,189.82v-0.186
		C375,175.074,363.153,163.227,348.592,163.227z"/>
	<path d="M212.458,131.582c14.536,0,26.362-11.826,26.362-26.362s-11.826-26.362-26.362-26.362s-26.362,11.826-26.362,26.362
		S197.921,131.582,212.458,131.582z"/>
	<path d="M274.609,58.134c14.536,0,26.362-11.826,26.362-26.362S289.145,5.41,274.609,5.41s-26.362,11.826-26.362,26.362
		S260.073,58.134,274.609,58.134z"/>
	<path d="M289.65,105.219c0,14.536,11.826,26.362,26.362,26.362s26.362-11.826,26.362-26.362s-11.826-26.362-26.362-26.362
		S289.65,90.683,289.65,105.219z"/>
</g>
<g>
</g>
<g>
</g>
<g>
</g>
<g>
</g>
<g>
</g>
<g>
</g>
<g>
</g>
<g>
</g>
<g>
</g>
<g>
</g>
<g>
</g>
<g>
</g>
<g>
</g>
<g>
</g>
<g>
</g>
</svg>
