<svg xmlns="http://www.w3.org/2000/svg" xmlns:xlink="http://www.w3.org/1999/xlink" version="1.1" width="540" height="565" style="enable-background:new 0 0 556.748 556.748;" xml:space="preserve"><rect id="backgroundrect" width="100%" height="100%" x="0" y="0" fill="none" stroke="none"/>
















<g class="currentLayer" style=""><title>Layer 1</title><g id="svg_1" class="" transform="">
	<g id="svg_2" transform="">
		<path d="M 478.581 161.697 c -7.32714 -14.1204 -25.7147 -25.1669 -41.8509 -25.1669 h -12.4825 c -12.0384 0 -29.1124 -7.34165 -37.2894 -16.0403 L 281.498 8.44711 C 276.383 2.9969 269.994 0 263.535 0 c -8.50238 0 -15.9782 4.96543 -20.4912 13.5961 l -97.8253 187.164 c -3.25926 6.23518 -9.75713 10.1154 -16.9459 10.1154 c -2.95254 0 -5.78736 -0.65009 -8.43422 -1.94013 l -34.3761 -16.8841 c -4.3746 -2.1531 -9.30273 -3.2971 -14.2309 -3.2971 c -11.8597 0 -22.7229 6.26459 -28.3523 16.3415 l -40.212 71.9216 c -2.66648 4.78084 -2.84411 9.75641 -0.49364 13.6549 c 2.35976 3.91778 6.89237 6.15709 12.4422 6.15709 h 155.231 l 35.9469 -35.3787 c 9.8067 -10.9978 23.4933 -12.2584 28.8852 -12.2584 c 1.00793 0 1.76801 0.0486807 2.40004 0.0872195 c -0.0495705 -0.85394 -0.257147 -1.65818 -0.257147 -2.52125 c 0 -25.5452 21.1532 -46.2983 47.155 -46.2983 c 26.0028 0 47.155 20.7633 47.155 46.2892 c 0 24.5655 -19.6909 44.5337 -44.3801 45.9697 l 2.67681 4.12061 h 236.723 c 5.51988 0 10.0628 -2.22004 12.4918 -6.11956 c 2.41966 -3.87822 2.38042 -8.89334 -0.128057 -13.6935 L 478.581 161.697 Z M 134.691 226.199 V 236.304 c 0 6.75951 -5.54983 12.8882 -12.3833 13.6843 l -1.72774 0.20385 c -6.84383 0.784975 -15.5342 4.85894 -19.4058 9.09618 c -3.88096 4.22812 -11.9589 5.07191 -18.0323 1.8813 l -1.38281 -0.718039 c -6.07342 -3.18047 -16.601 -5.76967 -23.4933 -5.76967 c -6.8934 0 -11.0707 -5.30518 -9.32236 -11.871 l 9.02596 -33.973 c 0.305685 -1.16326 0.444069 -2.21091 0.514294 -3.18047 c 3.5257 -2.88027 7.94987 -4.65509 12.7386 -4.65509 c 3.05168 0 5.95466 0.669359 8.65005 2.00706 l 34.3761 16.8648 c 4.39422 2.17237 9.11478 3.24943 14.013 3.24943 c 2.46923 0 4.86824 -0.33975 7.19908 -0.873209 C 134.998 223.551 134.691 224.87 134.691 226.199 Z M 396.626 148.526 l -26.9509 74.6944 c -2.28128 6.38122 -7.97982 7.5455 -12.689 2.59934 l -3.22002 -3.36505 c -4.70094 -4.95528 -11.3062 -13.7036 -14.7431 -19.5706 l -4.72056 -8.04955 c -3.43586 -5.86703 -9.00634 -8.22399 -12.4618 -5.26562 c -3.44722 2.97763 -7.98911 0.15517 -10.1423 -6.26459 l -7.78154 -23.2562 c -2.15219 -6.44004 -7.42525 -7.39033 -11.7709 -2.14296 l -13.8839 16.7877 c -4.34568 5.2565 -7.87138 4.03441 -7.87138 -2.73524 v -26.0391 c 0 -6.76864 -4.1474 -8.59213 -9.28208 -4.06281 l -12.6302 11.1722 c -5.11506 4.52831 -8.41356 2.78291 -7.35709 -3.89851 l 7.08032 -44.699 c 1.05647 -6.69156 -2.32052 -8.54447 -7.54505 -4.1409 l -2.90401 2.4249 c -5.22453 4.40256 -8.46313 2.5892 -7.22903 -4.08309 l 9.81599 -53.0193 l 13.8157 -26.4366 c 4.15773 -7.96233 12.0673 -8.97042 18.1903 -2.4533 L 377.804 128.791 c 5.41145 5.7504 13.4305 10.8233 22.0527 14.4409 C 398.572 144.705 397.406 146.383 396.626 148.526 Z M 486.581 217.199 c -6.55777 -2.03647 -11.899 1.06692 -11.899 6.94409 c 0 5.8863 -3.26959 6.18751 -7.2786 0.678487 l -1.02652 -1.36813 c -4.02038 -5.49888 -9.38225 -9.93998 -11.9692 -9.93998 c -2.57767 0 -6.41938 -4.51006 -8.5726 -10.0475 c -2.15219 -5.53742 -6.33986 -7.99073 -9.3523 -5.4502 c -3.03206 2.53139 -5.46102 -0.911748 -5.46102 -7.66213 v -4.59728 c 0 -6.76864 -4.89819 -12.2584 -10.9324 -12.2584 c -6.02385 0 -9.71685 -5.37211 -8.24523 -11.9673 c 0 0 0.987279 -4.43197 2.19246 -9.8629 c 0.305685 -1.3874 0.365583 -2.73524 0.216871 -4.01514 c 3.45754 0.678487 6.8335 1.12473 10.005 1.12473 h 12.4825 c 11.4652 0 25.5474 8.45623 30.7513 18.4743 l 27.2566 52.4473 L 486.581 217.199 Z" id="svg_3" transform=""/>
		<path d="M 285.597 280.44 c 17.8444 0 32.3417 -14.1691 32.3417 -31.7033 c 0 -17.4956 -14.5066 -31.7327 -32.3417 -31.7327 c -17.8247 0 -32.322 14.2655 -32.322 31.7327 C 253.295 266.271 267.772 280.44 285.597 280.44 Z" id="svg_4" transform=""/>
		<path d="M 217.921 273.719 l -68.3567 67.2665 c -4.39422 4.67334 -6.96259 10.9288 -6.96259 17.7573 c 0 9.93085 5.64897 18.6984 13.9438 23.2257 l 69.6115 38.0074 v 71.4845 c 0 10.086 8.32578 18.3587 18.6148 18.3587 c 10.32 0 18.654 -8.24326 18.654 -18.3587 v -89.329 c 0 0 2.46923 -14.2178 -14.0429 -22.0047 l -40.1531 -20.7724 l 43.3236 -42.129 l 20.9848 32.2945 c 3.68371 5.72302 8.75952 8.01101 13.4605 7.91466 h 62.432 c 19.3655 0 19.3655 -24.8271 0 -24.8271 l -53.9296 0.116631 l -35.4729 -54.639 c 0 0 -7.52542 -12.2777 -21.8152 -12.2777 C 238.206 265.825 226.335 264.312 217.921 273.719 Z" id="svg_5" transform=""/>
		<path d="M 371.365 391.561 c -48.6555 0 -88.157 38.6758 -88.157 86.5258 c 0 47.8602 39.5211 86.5562 88.157 86.5562 c 48.5863 0 88.0785 -38.7153 88.0785 -86.5562 C 459.444 430.217 419.951 391.561 371.365 391.561 Z" id="svg_6" transform=""/>
		<path d="M 30.2688 478.087 c 0 47.8409 39.5118 86.5562 88.0589 86.5562 c 48.735 0 88.1767 -38.7153 88.1767 -86.5562 c 0 -47.851 -39.4716 -86.5258 -88.1767 -86.5258 C 69.7806 391.561 30.2688 430.266 30.2688 478.087 Z" id="svg_7" transform=""/>
	</g>
</g><g id="svg_8" class="" transform="">
</g><g id="svg_9" class="" transform="">
</g><g id="svg_10" class="" transform="">
</g><g id="svg_11" class="" transform="">
</g><g id="svg_12" class="" transform="">
</g><g id="svg_13" class="" transform="">
</g><g id="svg_14" class="" transform="">
</g><g id="svg_15" class="" transform="">
</g><g id="svg_16" class="" transform="">
</g><g id="svg_17" class="" transform="">
</g><g id="svg_18" class="" transform="">
</g><g id="svg_19" class="" transform="">
</g><g id="svg_20" class="" transform="">
</g><g id="svg_21" class="" transform="">
</g><g id="svg_22" class="" transform="">
</g></g></svg>