<svg xmlns="http://www.w3.org/2000/svg" xmlns:xlink="http://www.w3.org/1999/xlink" version="1.1" style="enable-background:new 0 0 463 463;" xml:space="preserve" width="352" height="461"><rect id="backgroundrect" width="100%" height="100%" x="0" y="0" fill="none" stroke="none" class="" style=""/>
















<g class="currentLayer" style=""><title>Layer 1</title><g id="svg_1" class="" transform="">
	<path d="M 344.909 1.97368 h -335.37 C 5.40434 1.97368 2.05263 5.30306 2.05263 9.40974 v 444.181 c 0 4.10669 3.35171 7.43606 7.48594 7.43606 h 335.37 c 4.13424 0 7.48594 -3.32937 7.48594 -7.43606 V 9.40974 C 352.395 5.30306 349.043 1.97368 344.909 1.97368 Z M 17.0245 27.3614 l 16.9681 16.8551 v 374.566 l -16.9681 16.8551 V 27.3614 Z M 48.9645 414.427 V 48.573 h 256.518 v 365.854 H 48.9645 Z M 309.869 33.7009 H 44.5788 l -16.9681 -16.8551 h 299.225 L 309.869 33.7009 Z M 44.5788 429.299 h 265.289 l 16.9681 16.8551 H 27.6106 L 44.5788 429.299 Z M 320.455 418.784 V 44.2164 l 16.9681 -16.8551 v 408.276 L 320.455 418.784 Z" id="svg_2" transform=""/>
	<path d="M 281.029 65.428 h -207.61 c -4.13424 0 -7.48594 3.32937 -7.48594 7.43606 v 317.272 c 0 4.10669 3.35171 7.43606 7.48594 7.43606 h 207.61 c 4.13424 0 7.48594 -3.32937 7.48594 -7.43606 v -317.272 C 288.515 68.7574 285.163 65.428 281.029 65.428 Z M 156.133 232.562 c -2.79575 -1.15011 -6.0167 -0.515567 -8.15768 1.61214 l -3.57229 3.54849 c -8.32038 8.26493 -21.859 8.26592 -30.1953 -0.0158636 c -5.2701 -5.23498 -7.42106 -12.9487 -5.61346 -20.1309 L 137.299 103.522 l 10.6899 42.4758 c -0.877353 -0.165576 -1.77966 -0.260758 -2.70492 -0.260758 c -7.98001 0 -14.4728 6.44954 -14.4728 14.3764 s 6.49281 14.3764 14.4728 14.3764 c 3.43355 0 6.58863 -1.19968 9.07296 -3.19156 L 177.617 263.723 H 160.755 v -24.2911 C 160.755 236.424 158.931 233.713 156.133 232.562 Z M 145.783 160.114 c 0 0.273647 -0.22358 0.495737 -0.499063 0.495737 s -0.499063 -0.22209 -0.499063 -0.495737 s 0.22358 -0.495737 0.499063 -0.495737 S 145.783 159.84 145.783 160.114 Z M 153.269 357.169 c 15.5767 0 28.6203 10.9647 31.7304 25.5305 H 121.538 C 124.648 368.134 137.692 357.169 153.269 357.169 Z M 160.755 342.89 v -23.0012 l 32.6297 6.48226 L 207.561 382.7 h -7.36816 C 197.261 362.327 181.161 346.119 160.755 342.89 Z M 170.087 306.575 l 15.1575 -12.5471 l 4.12226 16.3772 L 170.087 306.575 Z M 220.905 374.401 l -22.889 -90.945 l 7.95506 -6.58537 c 2.42145 -2.00377 3.31977 -5.30042 2.24678 -8.24411 c -1.07299 -2.94369 -3.8877 -4.90482 -7.03878 -4.90482 h -8.12874 l -17.6259 -70.0338 c 10.9355 8.34028 25.6738 13.2719 41.2256 13.2719 c 17.6668 0 34.2846 -6.36328 45.4676 -16.86 C 269.605 209.516 273.543 230.28 273.543 251.329 C 273.543 297.995 254.485 342.226 220.905 374.401 Z M 254.97 175.977 c -2.21185 2.72259 -4.92475 5.15368 -8.00297 7.26453 c 0.565937 -2.33195 0.874358 -4.76304 0.874358 -7.26453 s -0.308421 -4.93259 -0.874358 -7.26453 C 250.045 170.824 252.757 173.255 254.97 175.977 Z M 232.869 175.977 c 0 8.88361 -7.27634 16.1115 -16.2195 16.1115 s -16.2195 -7.22785 -16.2195 -16.1115 s 7.27634 -16.1115 16.2195 -16.1115 S 232.869 167.094 232.869 175.977 Z M 186.333 183.242 c -3.07822 -2.11184 -5.79013 -4.54194 -8.00297 -7.26453 c 2.21185 -2.72259 4.92475 -5.15368 8.00297 -7.26453 c -0.565937 2.33195 -0.874358 4.76304 -0.874358 7.26453 S 185.767 180.91 186.333 183.242 Z M 216.65 144.994 c -19.3227 0 -37.3958 7.60659 -48.47 19.9138 l -19.6561 -78.0984 c 33.3035 9.42991 63.349 28.8658 85.6222 55.6336 c 1.64791 1.98097 3.2459 3.99663 4.79699 6.04403 C 231.961 146.223 224.407 144.994 216.65 144.994 Z M 80.9046 80.3002 h 46.8061 L 94.0698 213.969 c -3.07622 12.2209 0.583903 25.3451 9.56703 34.2693 c 11.3856 11.3088 28.5105 13.5237 42.1459 6.64486 V 271.159 c 0 4.10669 3.35171 7.43606 7.48594 7.43606 h 27.2339 l -32.0259 26.51 c -1.70679 1.41285 -2.69394 3.50585 -2.69394 5.71288 v 32.0722 c -20.4067 3.23022 -36.5064 19.4369 -39.4379 39.8097 H 80.9046 V 80.3002 Z M 273.543 382.7 h -39.7653 c 17.044 -16.9423 30.4728 -36.8065 39.7653 -58.4603 V 382.7 Z M 245.687 132.968 C 226.524 109.938 202.06 91.9044 174.734 80.3002 H 273.543 v 98.2244 C 266.546 162.178 257.199 146.803 245.687 132.968 Z" id="svg_3" transform=""/>
</g><g id="svg_4" class="" transform="">
</g><g id="svg_5" class="" transform="">
</g><g id="svg_6" class="" transform="">
</g><g id="svg_7" class="" transform="">
</g><g id="svg_8" class="" transform="">
</g><g id="svg_9" class="" transform="">
</g><g id="svg_10" class="" transform="">
</g><g id="svg_11" class="" transform="">
</g><g id="svg_12" class="" transform="">
</g><g id="svg_13" class="" transform="">
</g><g id="svg_14" class="" transform="">
</g><g id="svg_15" class="" transform="">
</g><g id="svg_16" class="" transform="">
</g><g id="svg_17" class="" transform="">
</g><g id="svg_18" class="" transform="">
</g></g></svg>